<?xml version="1.0" encoding="UTF-8"?>
<svg id="Layer_1" data-name="Layer 1" xmlns="http://www.w3.org/2000/svg" viewBox="0 0 42.18 42.24">
  <defs>
    <style>
      .cls-1 {
        fill-rule: evenodd;
      }

      .cls-1, .cls-2 {
        fill: #fffdf6;
      }
    </style>
  </defs>
  <ellipse class="cls-2" cx="21.45" cy="21.38" rx="6.13" ry="4.91"/>
  <path class="cls-1" d="M26.97,12.79c-1.02,0-1.84,.82-1.84,1.84s.82,1.84,1.84,1.84,1.84-.82,1.84-1.84-.82-1.84-1.84-1.84Z"/>
  <path class="cls-1" d="M21.14-.04C9.48-.04,.03,9.41,.03,21.07s9.45,21.11,21.11,21.11,21.11-9.45,21.11-21.11S32.8-.04,21.14-.04Zm11.35,25.25c0,3.98-3.23,7.21-7.21,7.21h-8.28c-3.98,0-7.21-3.23-7.21-7.21v-8.28c0-3.98,3.23-7.21,7.21-7.21h8.28c3.98,0,7.21,3.23,7.21,7.21v8.28Z"/>
</svg>