<?xml version="1.0" encoding="UTF-8"?>
<svg id="Layer_1" data-name="Layer 1" xmlns="http://www.w3.org/2000/svg" viewBox="0 0 42.18 42.24">
  <defs>
    <style>
      .cls-1 {
        fill: #fffdf6;
        fill-rule: evenodd;
      }
    </style>
  </defs>
  <path class="cls-1" d="M21.09-.02C9.43-.02-.02,9.43-.02,21.09s9.45,21.11,21.11,21.11,21.11-9.45,21.11-21.11S32.75-.02,21.09-.02Zm13.41,24.46c0,3.98-3.23,7.21-7.21,7.21H14.89c-3.98,0-7.21-3.23-7.21-7.21v-6.69c0-3.98,3.23-7.21,7.21-7.21h12.4c3.98,0,7.21,3.23,7.21,7.21v6.69Z"/>
  <path class="cls-1" d="M25.9,19.23l-7.4-2.48c-1.27-.43-2.59,.52-2.59,1.86v4.97c0,1.34,1.32,2.29,2.59,1.86l7.4-2.48c1.79-.6,1.79-3.13,0-3.73Z"/>
</svg>