<?xml version="1.0" encoding="UTF-8"?>
<svg id="Layer_1" data-name="Layer 1" xmlns="http://www.w3.org/2000/svg" viewBox="0 0 42.18 42.24">
  <defs>
    <style>
      .cls-1 {
        fill: #fffdf6;
      }
    </style>
  </defs>
  <path class="cls-1" d="M21.09,.01C9.43,.01-.02,9.46-.02,21.12s9.45,21.11,21.11,21.11,21.11-9.45,21.11-21.11S32.75,.01,21.09,.01Zm7.93,11.4c0,.79-.65,1.44-1.44,1.44h-1.44c-1.59,0-2.88,1.29-2.88,2.88v5.75h3.61c.8,0,1.44,.64,1.44,1.44v2.16c0,.79-.65,1.44-1.44,1.44h-3.61v6.47c0,.79-.65,1.44-1.44,1.44h-2.16c-.8,0-1.44-.64-1.44-1.44v-6.47h-3.61c-.8,0-1.44-.64-1.44-1.44v-2.16c0-.79,.65-1.44,1.44-1.44h3.61v-5.75c0-4.37,3.55-7.91,7.93-7.91h1.44c.8,0,1.44,.64,1.44,1.44v2.16Z"/>
</svg>