<?xml version="1.0" encoding="UTF-8"?>
<svg id="Layer_1" data-name="Layer 1" xmlns="http://www.w3.org/2000/svg" viewBox="0 0 124.84 19.8">
  <defs>
    <style>
      .cls-1 {
        fill: #fffdf6;
      }
    </style>
  </defs>
  <path class="cls-1" d="M124.38,13.25s-.02-4.61-.02-5.72c0-2.46-2.03-3.7-4.54-3.7-3.14,0-4.54,1.63-4.7,3.23h2.46c.35-.76,.99-.93,2.21-.93,1.55,0,2.21,.44,2.21,1.18,0,.08-.01,.17-.04,.25-.03,.08-.08,.15-.14,.21-.31,.25-.68,.41-1.08,.46-.56,.11-1.12,.18-1.69,.2-.28,.02-.56,.04-.85,.06-1.15,.15-3.86,.65-3.86,3.64,0,1.96,1.34,3.82,4.42,3.82,1.22,0,2.4-.41,3.35-1.16,.07,.32,.18,.62,.32,.91h2.41c-.24-.39-.48-1.73-.46-2.44Zm-2.37-3.1v.48c.03,.41-.02,.82-.12,1.21-.09,.27-.24,.53-.43,.74-.19,.22-.42,.39-.68,.52-.6,.34-1.27,.53-1.96,.55-1.08,0-2.02-.73-2.02-1.46-.03-.15-.02-.31,.02-.47s.11-.29,.2-.42c.27-.24,.6-.41,.95-.49,.49-.11,.99-.18,1.49-.21,.36-.03,.74-.06,1.11-.12,.5-.07,.98-.21,1.44-.43v.09Z"/>
  <path class="cls-1" d="M64.45,10.93c0,1.62-.81,2.73-2.39,2.73-1.48,0-2.2-.98-2.2-2.67V4.11h-2.42v6.95c0,2.42,1.29,4.9,4.36,4.9,.99,.03,1.95-.31,2.7-.94v.68h2.38V4.11h-2.44v6.83Z"/>
  <path class="cls-1" d="M52.91,10.93c0,1.62-.71,2.73-2.16,2.73s-1.97-.98-1.97-2.67V4.11h-2.42v6.87c0,1.6-.72,2.68-2.16,2.68s-1.97-.98-1.97-2.67V4.11h-2.42v6.95c0,2.42,1.21,4.9,4.14,4.9,1.4,0,2.72-.75,3.33-1.63,.35,.52,.84,.95,1.4,1.23,.56,.29,1.19,.42,1.82,.4,.92,.02,1.8-.32,2.48-.94v.68h2.4V4.11h-2.46s0,6.2,0,6.83Z"/>
  <path class="cls-1" d="M108.8,9.01l5.96,6.67h-3.38l-4.77-5.42v5.44h-2.46V0h2.46V7.97l4.17-4.13h3.38l-5.36,5.18Z"/>
  <path class="cls-1" d="M20.02,3.84c-3.33,0-5.9,2.73-5.9,6.06s2.56,6.06,5.9,6.06,5.9-2.73,5.9-6.06-2.56-6.06-5.9-6.06Zm0,9.82c-1.99,0-3.45-1.7-3.45-3.76s1.46-3.76,3.45-3.76,3.45,1.7,3.45,3.76-1.46,3.76-3.45,3.76Z"/>
  <path class="cls-1" d="M76.53,4.11h2.45V15.7h-2.45v-4.88h-4.77v4.88h-2.46V4.11h2.46v4.41h4.78V4.11Z"/>
  <path class="cls-1" d="M98.4,7.26h-2.66v-3.16h-2.46V15.96h5.12c1.15,0,2.26-.46,3.07-1.27,.82-.82,1.27-1.92,1.27-3.08s-.46-2.26-1.27-3.08c-.82-.82-1.92-1.27-3.07-1.27Zm-.17,6.4h-2.49v-4.11h2.49c.54,0,1.07,.22,1.45,.6,.39,.39,.6,.91,.6,1.45s-.22,1.07-.6,1.45c-.39,.39-.91,.6-1.45,.6Z"/>
  <path class="cls-1" d="M86.34,13.66c-1.99,0-3.17-1.7-3.17-3.76s1.18-3.76,3.17-3.76c1.63,0,2.36,.62,2.65,1.3h2.51c-.37-1.94-2.33-3.61-5.16-3.61-3.35,0-5.62,2.73-5.62,6.06s2.27,6.06,5.62,6.06c2.94,0,4.86-1.69,5.21-3.98h-2.5c-.27,.95-1.05,1.69-2.71,1.69Z"/>
  <path class="cls-1" d="M32.78,3.83c-1.13-.02-2.23,.38-3.07,1.14v-.87h-2.38v15.7h2.46v-4.91c.83,.71,1.9,1.09,2.99,1.06,3.33,0,5.57-2.73,5.57-6.06s-2.22-6.07-5.57-6.07Zm0,9.82c-1.99,0-3.11-1.71-3.11-3.76s1.12-3.76,3.11-3.76,3.11,1.71,3.11,3.76-1.11,3.76-3.11,3.76Z"/>
  <path class="cls-1" d="M10.33,4.13l-.17,.18-3.11,3.35c-.27,.3-.52,.62-.74,.95-.22-.34-.47-.66-.74-.95l-3.12-3.35-.17-.18H0V15.7H2.46V7.86c.53,.49,1.02,1.02,1.47,1.58,.73,.91,1.21,2,1.4,3.15h1.98c.19-1.15,.67-2.24,1.4-3.15,.45-.56,.94-1.09,1.47-1.58v7.84h2.45V4.13h-2.29Z"/>
</svg>