<svg width="246" height="246" viewBox="0 0 246 246" fill="none" xmlns="http://www.w3.org/2000/svg">
<g opacity="0.9">
<path fill-rule="evenodd" clip-rule="evenodd" d="M123.568 244.608C190.882 244.143 245.074 189.197 244.608 121.883C244.143 54.5687 189.197 0.376971 121.883 0.8422C54.5689 1.30743 0.377142 56.2535 0.842371 123.568C1.3076 190.882 56.2536 245.073 123.568 244.608ZM123.459 228.878C182.085 228.473 229.282 180.619 228.877 121.993C228.472 63.3667 180.617 16.1694 121.992 16.5746C63.3656 16.9798 16.1683 64.834 16.5735 123.46C16.9787 182.086 64.8329 229.283 123.459 228.878Z" fill="#EE8F58"/>
<path fill-rule="evenodd" clip-rule="evenodd" d="M34.4055 96.4949C24.4925 118.392 30.2692 150.202 40.8164 158.833C46.3136 162.435 51.8801 157.642 73.2547 144.654C94.4146 131.796 102.513 129.251 102.468 122.692C102.423 116.134 91.8117 112.243 74.2006 102.125C58.7742 93.2634 47.6143 86.0847 42.0835 87.2298C39.6781 87.7278 37.3385 90.0161 34.4055 96.4949Z" fill="#EE6158"/>
<path fill-rule="evenodd" clip-rule="evenodd" d="M211.054 149.521C220.966 127.624 215.19 95.8139 204.643 87.183C199.145 83.5813 193.579 88.3744 172.204 101.362C151.044 114.22 142.945 116.766 142.991 123.324C143.036 129.882 153.647 133.774 171.258 143.891C186.685 152.753 197.845 159.931 203.376 158.786C205.781 158.288 208.12 156 211.054 149.521Z" fill="#EE6158"/>
<path fill-rule="evenodd" clip-rule="evenodd" d="M102.71 32.8511C78.7906 35.2147 54.1303 56.1226 51.9294 69.5722C51.5588 76.1338 58.493 78.558 80.4281 90.575C102.143 102.471 108.397 108.212 114.054 104.894C119.711 101.576 117.776 90.4402 117.732 70.13C117.693 52.3393 118.33 39.0852 114.573 34.8679C112.939 33.0338 109.788 32.1518 102.71 32.8511Z" fill="#EE6158"/>
<path fill-rule="evenodd" clip-rule="evenodd" d="M56.7918 186.352C70.7986 205.886 101.236 216.788 113.984 211.969C119.852 209.009 118.484 201.792 117.923 176.787C117.368 152.034 119.213 143.747 113.511 140.507C107.809 137.267 99.1328 144.511 81.5656 154.704C66.1776 163.633 54.3807 169.708 52.607 175.07C51.8356 177.402 52.6475 180.573 56.7918 186.352Z" fill="#EE6158"/>
<path fill-rule="evenodd" clip-rule="evenodd" d="M145.11 212.866C169.03 210.502 193.69 189.594 195.891 176.145C196.262 169.583 189.327 167.159 167.392 155.142C145.677 143.245 139.423 137.505 133.766 140.823C128.11 144.141 130.045 155.277 130.089 175.587C130.127 193.377 129.49 206.632 133.247 210.849C134.881 212.683 138.033 213.565 145.11 212.866Z" fill="#EE6158"/>
<path fill-rule="evenodd" clip-rule="evenodd" d="M191.029 59.365C177.022 39.8317 146.585 28.9292 133.837 33.7479C127.969 36.7078 129.337 43.9251 129.897 68.9299C130.452 93.6837 128.607 101.97 134.309 105.21C140.012 108.45 148.687 101.206 166.255 91.0133C181.643 82.0847 193.44 76.0093 195.213 70.6469C195.985 68.3148 195.173 65.1445 191.029 59.365Z" fill="#EE6158"/>
</g>
</svg>
