<svg width="156" height="132" viewBox="0 0 156 132" fill="none" xmlns="http://www.w3.org/2000/svg">
<g opacity="0.5">
<path fill-rule="evenodd" clip-rule="evenodd" d="M73.4189 93.9238C87.7436 93.5692 103.323 82.2221 105.222 74.3226C105.731 70.4379 101.715 68.6921 89.2016 60.5843C76.8141 52.5579 73.348 48.8701 69.8391 50.5945C66.3303 52.3188 66.9917 59.0241 66.1257 71.1009C65.3672 81.6796 64.4063 89.5315 66.4548 92.2038C67.3456 93.3659 69.1806 94.0287 73.4189 93.9238Z" fill="#EE6158"/>
<path fill-rule="evenodd" clip-rule="evenodd" d="M24.9671 74.6782C32.4366 86.9064 50.0532 94.725 57.8439 92.4201C61.4625 90.9181 60.9663 86.5672 61.7313 71.6766C62.4887 56.9355 63.9493 52.0899 60.7016 49.9133C57.4538 47.7367 51.9776 51.6622 41.0858 56.9506C31.5451 61.583 24.2647 64.6768 22.9747 67.787C22.4136 69.1396 22.7571 71.0601 24.9671 74.6782Z" fill="#EE6158"/>
<path fill-rule="evenodd" clip-rule="evenodd" d="M115.107 61.5855C121.962 49.0027 119.925 29.8369 114.034 24.2424C110.924 21.8597 107.404 24.4648 94.1255 31.2476C80.9807 37.9622 76.0539 39.1201 75.7928 43.021C75.5317 46.9219 81.6694 49.7018 91.6952 56.4901C100.477 62.4364 106.797 67.1945 110.135 66.7566C111.587 66.5662 113.079 65.3085 115.107 61.5855Z" fill="#EE6158"/>
<path fill-rule="evenodd" clip-rule="evenodd" d="M6.14411 71.5436C22.4478 104.719 62.5585 118.397 95.7342 102.093C128.91 85.7896 142.588 45.679 126.284 12.5032L118.531 16.3136C132.73 45.2071 120.817 80.1403 91.9238 94.3394C63.0304 108.538 28.0971 96.6264 13.8978 67.7332L6.14411 71.5436Z" fill="#EE8F58"/>
</g>
</svg>
