<?xml version="1.0" encoding="utf-8"?>
<!-- Generator: Adobe Illustrator 26.5.0, SVG Export Plug-In . SVG Version: 6.00 Build 0)  -->
<svg version="1.1" id="Layer_1" xmlns="http://www.w3.org/2000/svg" xmlns:xlink="http://www.w3.org/1999/xlink" x="0px" y="0px"
	 viewBox="0 0 41 33" style="enable-background:new 0 0 41 33;" xml:space="preserve">
<style type="text/css">
	.st0{fill-rule:evenodd;clip-rule:evenodd;fill:#C83E36;}
</style>
<path class="st0" d="M16.2,0.6c0.8,0.5,1,1.6,0.5,2.4l-3.4,5.1h15.9L25.7,3c-0.5-0.8-0.3-1.8,0.5-2.4C27,0.1,28,0.3,28.5,1.1l4.7,7
	h5.1v0h0.7c0.9,0,1.7,0.8,1.7,1.7c0,0.9-0.8,1.7-1.7,1.7h-1.3l-3,17.8c-0.4,2.1-2.2,3.7-4.4,3.7H11c-2.2,0-4-1.6-4.4-3.7L3.8,11.5
	H2.5c-0.9,0-1.7-0.8-1.7-1.7c0-0.9,0.8-1.7,1.7-1.7h0.8l0,0h5.8l4.7-7C14.3,0.3,15.4,0.1,16.2,0.6z M32.3,11.5
	C32.3,11.5,32.4,11.5,32.3,11.5h2l-2.9,17.2c-0.1,0.5-0.5,0.9-1,0.9H11c-0.5,0-0.9-0.4-1-0.9L7.3,11.5H10c0,0,0.1,0,0.1,0H32.3z
	 M14.5,15.7c-0.1-0.9-1-1.6-2-1.4c-0.9,0.1-1.6,1-1.4,2l1.5,9.2c0.1,0.9,1,1.6,2,1.4c0.9-0.1,1.6-1,1.4-2L14.5,15.7z M21.2,14.2
	c0.9,0,1.7,0.8,1.7,1.7v9.2c0,0.9-0.8,1.7-1.7,1.7s-1.7-0.8-1.7-1.7v-9.2C19.5,15,20.2,14.2,21.2,14.2z M30.5,16.3
	c0.1-0.9-0.5-1.8-1.4-2c-0.9-0.1-1.8,0.5-2,1.4l-1.4,9.1c-0.1,0.9,0.5,1.8,1.4,2c0.9,0.1,1.8-0.5,2-1.4L30.5,16.3z"/>
</svg>
