<svg width="80" height="78" viewBox="0 0 80 78" fill="none" xmlns="http://www.w3.org/2000/svg">
<ellipse cx="40.0586" cy="39" rx="39.5" ry="39" fill="#FFFDF6"/>
<path fill-rule="evenodd" clip-rule="evenodd" d="M40.0584 38.3657C41.0493 38.3657 41.8525 39.1588 41.8525 40.1372L41.8525 62.5516C41.8525 63.5299 41.0493 64.323 40.0584 64.323C39.0675 64.323 38.2642 63.5299 38.2642 62.5516L38.2642 40.1372C38.2642 39.1588 39.0675 38.3657 40.0584 38.3657Z" fill="#EE6158"/>
<path fill-rule="evenodd" clip-rule="evenodd" d="M48.032 48.8952C49.7353 47.475 51.0204 45.1634 51.0204 41.3425C51.0204 37.2865 49.5652 31.4149 47.1333 26.5798C45.9263 24.1802 44.575 22.232 43.2219 20.9341C41.8528 19.6209 40.7877 19.2509 40.0588 19.2509C39.3298 19.2509 38.2647 19.6209 36.8956 20.9341C35.5425 22.232 34.1912 24.1802 32.9842 26.5798C30.5523 31.4149 29.0971 37.2865 29.0971 41.3425C29.0971 45.1634 30.3822 47.475 32.0855 48.8952C33.8845 50.3951 36.6071 51.2762 40.0588 51.2762C43.5104 51.2762 46.2331 50.3951 48.032 48.8952ZM40.0588 54.8191C48.0945 54.8191 54.6087 50.7324 54.6087 41.3425C54.6087 31.9526 48.0945 15.708 40.0588 15.708C32.023 15.708 25.5088 31.9526 25.5088 41.3425C25.5088 50.7324 32.023 54.8191 40.0588 54.8191Z" fill="#EE6158"/>
</svg>
