<?xml version="1.0" encoding="utf-8"?>
<!-- Generator: Adobe Illustrator 26.5.0, SVG Export Plug-In . SVG Version: 6.00 Build 0)  -->
<svg version="1.1" id="Layer_1" xmlns="http://www.w3.org/2000/svg" xmlns:xlink="http://www.w3.org/1999/xlink" x="0px" y="0px"
	 viewBox="0 0 39.73 40" style="enable-background:new 0 0 39.73 40;" xml:space="preserve">
<style type="text/css">
	.st0{fill-rule:evenodd;clip-rule:evenodd;fill:#FFFFFF;}
	.st1{fill:#FFFFFF;}
	.st2{fill-rule:evenodd;clip-rule:evenodd;fill:#EE8F58;}
	.st3{fill:#EE8F58;}
</style>
<g>
	<path class="st0" d="M18.68,33.66c0.76-0.3,1.61-0.3,2.37,0c4.13,1.62,7.94,1.06,10.7-0.85c2.78-1.92,4.85-5.46,4.85-10.46
		c0-4.88-1.99-8.32-5.08-10.95C28.54,8.85,24.46,7,19.96,5.56c-4.47,1.47-8.6,3.32-11.65,5.88c-3.15,2.64-5.19,6.06-5.19,10.91
		c0,4.97,2.11,8.49,4.93,10.41C10.86,34.68,14.68,35.22,18.68,33.66z M19.86,36.4c10.11,3.95,19.86-2.45,19.86-14.06
		S30.01,5.5,19.95,2.43C10.01,5.55,0,10.74,0,22.35S9.99,40.26,19.86,36.4z"/>
	<path class="st1" d="M25.52,21.3c0,4.21-1.62,4.7-5.66,7.37c-4.11-2.58-5.66-3.16-5.66-7.37s1.91-5.06,5.66-8.1
		C24.27,16.77,25.52,17.1,25.52,21.3z"/>
</g>
</svg>
