<?xml version="1.0" encoding="UTF-8"?>
<svg id="Layer_1" data-name="Layer 1" xmlns="http://www.w3.org/2000/svg" viewBox="0 0 49.2 49.54">
  <defs>
    <style>
      .cls-1, .cls-2 {
        fill: #fff;
      }

      .cls-2 {
        fill-rule: evenodd;
      }
    </style>
  </defs>
  <path class="cls-2" d="M25.04,6.73c1.65-1.54,3.6-2.5,5.91-2.54,8.92-.15,21.11,3.12,17.66,20.05-2.53,12.43-10.81,25.75-21.5,25.22-.99-.21-1.89-.48-2.7-.79-.83,.35-1.76,.63-2.8,.85C11.16,50.03,3.06,36.69,.58,24.24-2.78,7.3,9.16,4.38,17.88,4.25c2.64-.04,4.75,.94,6.44,2.53l.33,.33c.12-.12,.25-.25,.37-.37h.01Zm-3.94,38.76c-3.22,.02-6.6-1.99-9.77-6.19-3.21-4.26-5.65-10.12-6.79-15.85-1.47-7.42,.51-10.66,2.65-12.33,2.58-2.02,6.61-2.77,10.75-2.84,1.56-.02,2.75,.54,3.81,1.63,.76,.78,1.8,1.23,2.88,1.23s2.13-.43,2.9-1.2c1.16-1.19,2.29-1.68,3.47-1.7,4.12-.06,8.27,.71,10.91,2.76,2.22,1.73,4.22,5.05,2.72,12.43-1.16,5.72-3.65,11.55-6.93,15.81-3.23,4.19-6.72,6.23-10.09,6.19-.67-.16-1.24-.33-1.72-.53-.98-.38-2.07-.37-3.03,.02-.5,.21-1.08,.4-1.76,.56Z"/>
  <path class="cls-2" d="M23.81,.16c1.03-.43,2.22,.05,2.65,1.08,.71,1.66,.66,3.58,.45,5.09-.21,1.56-.66,2.98-1,3.88l-3.75-1.5c.25-.62,.59-1.73,.76-2.93,.17-1.25,.11-2.29-.16-2.95-.43-1.03,.05-2.22,1.08-2.65h-.01Z"/>
  <g>
    <path class="cls-1" d="M27.06,20.84h4.75c2.62,0,4.75,2.13,4.75,4.75s-2.13,4.75-4.75,4.75h-.78c-2.2,0-3.99-1.78-3.99-3.99v-5.53h.01Z"/>
    <path class="cls-1" d="M22.15,26.37c0,2.2-1.78,3.99-3.99,3.99h-.78c-2.62,0-4.75-2.13-4.75-4.75s2.13-4.75,4.75-4.75h4.75v5.53h.01Z"/>
  </g>
</svg>