<?xml version="1.0" encoding="UTF-8"?>
<svg id="Layer_1" data-name="Layer 1" xmlns="http://www.w3.org/2000/svg" viewBox="0 0 39.73 40">
  <defs>
    <style>
      .cls-1 {
        fill-rule: evenodd;
      }

      .cls-1, .cls-2 {
        fill: #ee8f58;
      }
    </style>
  </defs>
  <path class="cls-1" d="M18.68,33.66c.76-.3,1.61-.3,2.37,0,4.13,1.62,7.94,1.06,10.7-.85,2.78-1.92,4.85-5.46,4.85-10.46s-1.99-8.32-5.08-10.95c-2.98-2.55-7.06-4.4-11.56-5.84-4.47,1.47-8.6,3.32-11.65,5.88-3.15,2.64-5.19,6.06-5.19,10.91s2.11,8.49,4.93,10.41c2.81,1.92,6.63,2.46,10.63,.9Zm1.18,2.74c10.11,3.95,19.86-2.45,19.86-14.06S30.01,5.5,19.95,2.43C10.01,5.55,0,10.74,0,22.35s9.99,17.91,19.86,14.05Z"/>
  <path class="cls-2" d="M25.52,21.3c0,4.21-1.62,4.7-5.66,7.37-4.11-2.58-5.66-3.16-5.66-7.37s1.91-5.06,5.66-8.1c4.41,3.57,5.66,3.9,5.66,8.1Z"/>
</svg>