<?xml version="1.0" encoding="UTF-8"?>
<svg id="Layer_1" data-name="Layer 1" xmlns="http://www.w3.org/2000/svg" viewBox="0 0 39.73 39.86">
  <defs>
    <style>
      .cls-1, .cls-2 {
        fill: #fff;
      }

      .cls-2 {
        fill-rule: evenodd;
      }
    </style>
  </defs>
  <path class="cls-1" d="M19.87,0c10.97,0,19.86,8.89,19.86,19.86,0,10.97-8.89,19.86-19.86,19.87C8.89,39.73,0,30.84,0,19.86,0,8.89,8.89,0,19.87,0Zm0,2.56C10.31,2.56,2.56,10.31,2.56,19.86s7.75,17.3,17.3,17.3c9.55,0,17.3-7.75,17.3-17.3S29.42,2.56,19.87,2.56Z"/>
  <path class="cls-2" d="M5.5,15.49c-1.64,3.56-.73,8.75,.97,10.17,.89,.59,1.8-.18,5.3-2.27,3.46-2.07,4.79-2.48,4.79-3.55s-1.73-1.72-4.58-3.38c-2.5-1.46-4.31-2.64-5.22-2.46-.39,.08-.78,.45-1.26,1.5Z"/>
  <path class="cls-2" d="M34.23,24.33c1.64-3.56,.73-8.75-.97-10.17-.89-.59-1.8,.18-5.3,2.27-3.46,2.07-4.79,2.48-4.79,3.55s1.73,1.72,4.58,3.38c2.5,1.46,4.31,2.64,5.22,2.46,.39-.08,.78-.45,1.26-1.5Z"/>
  <path class="cls-2" d="M16.7,5.2c-3.9,.36-7.94,3.74-8.32,5.93-.07,1.07,1.06,1.47,4.62,3.46,3.53,1.96,4.54,2.91,5.46,2.37,.93-.53,.62-2.35,.64-5.66,.01-2.9,.13-5.06-.48-5.75-.26-.3-.78-.45-1.93-.34Z"/>
  <path class="cls-2" d="M9.05,30.16c2.26,3.2,7.21,5.01,9.29,4.24,.96-.48,.74-1.65,.68-5.73-.06-4.03,.25-5.38-.68-5.92-.93-.53-2.35,.64-5.22,2.28-2.52,1.44-4.45,2.41-4.74,3.29-.13,.38,0,.9,.67,1.84Z"/>
  <path class="cls-2" d="M23.41,34.58c3.9-.36,7.94-3.74,8.32-5.93,.07-1.07-1.06-1.47-4.62-3.46-3.53-1.96-4.54-2.91-5.46-2.37-.93,.53-.62,2.35-.64,5.66-.01,2.9-.13,5.06,.48,5.75,.26,.3,.78,.45,1.93,.34Z"/>
  <path class="cls-2" d="M31.07,9.62c-2.26-3.2-7.21-5.01-9.29-4.24-.96,.48-.74,1.65-.68,5.73,.06,4.03-.25,5.38,.68,5.92,.93,.53,2.35-.64,5.22-2.28,2.52-1.44,4.45-2.41,4.74-3.29,.13-.38,0-.9-.67-1.84Z"/>
</svg>