<svg width="80" height="78" viewBox="0 0 80 78" fill="none" xmlns="http://www.w3.org/2000/svg">
<ellipse cx="40.0586" cy="39" rx="39.5" ry="39" fill="#FFFDF6"/>
<path fill-rule="evenodd" clip-rule="evenodd" d="M46.4751 21.4839H33.6422V52.6096C33.6422 56.1085 36.515 58.9448 40.0586 58.9448C43.6023 58.9448 46.4751 56.1085 46.4751 52.6096V21.4839ZM30.3145 18.1982V52.6096C30.3145 57.9231 34.6771 62.2305 40.0586 62.2305C45.4402 62.2305 49.8028 57.9231 49.8028 52.6096V18.1982H30.3145Z" fill="#EE6158"/>
<path fill-rule="evenodd" clip-rule="evenodd" d="M26.1416 19.323C26.1416 18.4157 26.8865 17.6802 27.8055 17.6802H52.3123C53.2312 17.6802 53.9762 18.4157 53.9762 19.323C53.9762 20.2303 53.2312 20.9658 52.3123 20.9658H27.8055C26.8865 20.9658 26.1416 20.2303 26.1416 19.323Z" fill="#EE6158"/>
<path fill-rule="evenodd" clip-rule="evenodd" d="M30.377 30.2483C30.377 29.341 31.1219 28.6055 32.0408 28.6055H48.0765C48.9954 28.6055 49.7404 29.341 49.7404 30.2483C49.7404 31.1556 48.9954 31.8911 48.0765 31.8911H32.0408C31.1219 31.8911 30.377 31.1556 30.377 30.2483Z" fill="#EE6158"/>
</svg>
