<svg width="80" height="78" viewBox="0 0 80 78" fill="none" xmlns="http://www.w3.org/2000/svg">
<ellipse cx="40.0586" cy="39" rx="39.5" ry="39" fill="#FFFDF6"/>
<path fill-rule="evenodd" clip-rule="evenodd" d="M33.3479 16.8286C33.6734 16.5072 34.1149 16.3267 34.5752 16.3267L46.1469 16.3267C47.1054 16.3267 47.8825 17.0939 47.8825 18.0404V35.6559L55.3786 51.4163C57.6489 56.1895 54.1212 61.6732 48.7802 61.6732H31.5588C26.1572 61.6732 22.6317 56.0755 25.0208 51.2923L32.8396 35.6387V18.0403C32.8396 17.5858 33.0224 17.15 33.3479 16.8286ZM36.3109 19.754V36.0383C36.3109 36.3011 36.2496 36.5605 36.1319 36.7962L28.1341 52.8082C26.8827 55.3137 28.7294 58.2458 31.5588 58.2458H48.7802C51.5779 58.2458 53.4257 55.3734 52.2365 52.8731L44.5758 36.7667C44.4674 36.5388 44.4112 36.2901 44.4112 36.0383V19.754L36.3109 19.754Z" fill="#EE6158"/>
<path fill-rule="evenodd" clip-rule="evenodd" d="M27.501 18.0403C27.501 17.0939 28.2781 16.3267 29.2366 16.3267H50.9149C51.8735 16.3267 52.6506 17.0939 52.6506 18.0403C52.6506 18.9868 51.8735 19.754 50.9149 19.754H29.2366C28.2781 19.754 27.501 18.9868 27.501 18.0403Z" fill="#EE6158"/>
</svg>
