<svg width="50" height="56" viewBox="0 0 50 56" fill="none" xmlns="http://www.w3.org/2000/svg">
<path fill-rule="evenodd" clip-rule="evenodd" d="M25.4373 0.414378C26.5602 0.145032 27.7185 0.727687 28.0246 1.71577C28.6358 3.68909 28.617 6.05622 28.4105 8.08768C28.2005 10.1542 27.7743 12.0678 27.4348 13.2303L23.353 12.3071C23.6396 11.3259 24.0245 9.61062 24.2129 7.75727C24.4048 5.86887 24.3717 4.02523 23.9585 2.69116C23.6524 1.70307 24.3145 0.683724 25.4373 0.414378Z" fill="#80C151"/>
<path fill-rule="evenodd" clip-rule="evenodd" d="M27.5467 55.9277C38.402 56.4893 46.8198 42.6021 49.3922 29.6606C52.8965 12.0298 40.4977 8.62964 31.4413 8.78241C28.9251 8.82486 26.811 9.98925 25.0612 11.8091C23.293 9.94842 21.0394 8.78588 18.1758 8.83167C9.31289 8.97339 -2.82809 12.019 0.591496 29.6587C3.10158 42.6067 11.3331 56.5166 21.9594 55.9853C23.0153 55.7539 23.9592 55.4571 24.8024 55.0984C25.6227 55.4303 26.5343 55.7077 27.5467 55.9277Z" fill="#80C151"/>
</svg>
